# xmcd CD database file
#
# Track frame offsets:
#	150
#	33626
#	48907
#	71514
#	113248
#	131701
#	160160
#	184981
#	209053
#	222802
#
# Disc length: 3359 seconds
#
# Revision: 0
# Processed by: cddbd v1.5.2PL0 Copyright (c) Steve Scherf et al.
# Submitted via: CDex 1.70beta2
#
DISCID=990d1d0a
DTITLE=Tribal Tech - Rocket Science
DYEAR=1900
DGENRE=Jazz
TTITLE0=Saturn 5
TTITLE1=Astro Chimp
TTITLE2=Song Holy Hall
TTITLE3=Rocket Science
TTITLE4=Sojlevska
TTITLE5=Mini Me
TTITLE6=Space Camel
TTITLE7=Moonshine
TTITLE8=Cap 'N' Kirk
TTITLE9=The Econoline
EXTD=
EXTT0=
EXTT1=
EXTT2=
EXTT3=
EXTT4=
EXTT5=
EXTT6=
EXTT7=
EXTT8=
EXTT9=
PLAYORDER=
